<?xml version="1.0" standalone="no"?>
<!DOCTYPE svg PUBLIC "-//W3C//DTD SVG 1.1//EN" "http://www.w3.org/Graphics/SVG/1.1/DTD/svg11.dtd" >
<svg xmlns="http://www.w3.org/2000/svg">
<metadata>
This is a custom SVG webfont generated by Fontspring.
Designer    : James Puckett
Foundry     : James Puckett
Foundry URL : httpwwwdunwichtypecom
</metadata>
<defs>
<font id="ArmitageBold" horiz-adv-x="500" >
<font-face units-per-em="1000" ascent="800" descent="-200" />
<missing-glyph horiz-adv-x="253" />
<glyph unicode=" "  horiz-adv-x="253" />
<glyph unicode="&#x09;" horiz-adv-x="253" />
<glyph unicode="&#xa0;" horiz-adv-x="253" />
<glyph unicode="!" horiz-adv-x="350" d="M94 700h162v-125l-47 -341h-68l-47 341v125zM101 155h149v-155h-149v155z" />
<glyph unicode="&#x22;" horiz-adv-x="454" d="M84 700h106v-341h-106v341zM264 700h106v-341h-106v341z" />
<glyph unicode="#" horiz-adv-x="692" d="M92 503h126l40 184h89l-39 -184h144l40 184h89l-39 -184h126l-18 -84h-126l-32 -148h127l-18 -84h-127l-39 -187h-90l40 187h-145l-39 -187h-90l40 187h-127l18 84h127l31 148h-126zM290 419l-32 -148h145l31 148h-144z" />
<glyph unicode="$" horiz-adv-x="606" d="M102 188q35 -41 80 -68t92 -29v189l-24 8q-46 14 -78 29t-64.5 39t-49.5 60.5t-17 83.5q0 90 65.5 139.5t169.5 54.5v85h59v-86q143 -12 237 -110l-71 -76q-69 75 -166 84v-193l21 -6q44 -15 65 -23t56 -26.5t51.5 -38t30 -51.5t13.5 -73q0 -91 -65.5 -138.5 t-173.5 -52.5v-80h-59v81q-154 13 -246 121zM169 511q0 -38 27 -58.5t80 -37.5v177q-107 -3 -107 -81zM441 168q0 38 -27.5 58.5t-80.5 36.5v-174q108 3 108 79z" />
<glyph unicode="%" horiz-adv-x="974" d="M223 350q101 0 101 140t-101 140t-101 -140t101 -140zM223 697q84 0 139 -54t55 -153t-55 -152.5t-139 -53.5t-139 53.5t-55 152.5t55 153t139 54zM752 56q101 0 101 140t-101 140t-101 -140t101 -140zM752 403q84 0 139 -54t55 -153t-55 -152.5t-139 -53.5t-139 53.5 t-55 152.5t55 153t139 54zM690 699h72l-473 -709h-72z" />
<glyph unicode="&#x26;" horiz-adv-x="837" d="M391 714q87 0 129.5 -38t42.5 -104q0 -60 -42 -101t-106 -60l131 -193q61 70 75 216h116q-1 -67 -34.5 -147t-99.5 -151q32 -39 68 -39q54 0 54 82q0 20 -3 41h103q0 -126 -42 -176.5t-127 -50.5q-103 0 -156 60q-83 -64 -211 -64q-111 0 -186.5 57.5t-75.5 164.5 q0 54 19 97t51.5 70t65 43.5t69.5 26.5q-35 58 -35 119q0 69 48.5 108t145.5 39zM324 103q71 0 118 31l-158 235q-101 -32 -101 -132q0 -58 38.5 -96t102.5 -38zM332 579q0 -42 37 -99q47 13 71 32.5t24 57.5q0 30 -17.5 48.5t-49.5 18.5q-29 0 -47 -15t-18 -43z" />
<glyph unicode="'" horiz-adv-x="274" d="M84 700h106v-341h-106v341z" />
<glyph unicode="(" horiz-adv-x="380" d="M318 724l46 -46q-155 -178 -155 -416q0 -89 35.5 -194t120.5 -205l-54 -55q-72 60 -121.5 128t-71 131t-29.5 109t-8 91q0 273 237 457z" />
<glyph unicode=")" horiz-adv-x="380" d="M16 678l46 46q237 -184 237 -457q0 -45 -8 -91t-29.5 -109t-71 -131t-121.5 -128l-54 55q85 100 120.5 205t35.5 194q0 238 -155 416z" />
<glyph unicode="*" horiz-adv-x="491" d="M303 710l85 -49l-89 -119l147 19v-98l-147 17l89 -118l-86 -49l-56 136l-58 -136l-86 49l90 118l-147 -17v98l147 -19l-90 119l86 49l57 -136z" />
<glyph unicode="+" horiz-adv-x="632" d="M262 591h106v-199h195v-100h-195v-200h-106v200h-193v100h193v199z" />
<glyph unicode="," horiz-adv-x="318" d="M85 155h149v-143q0 -37 -9 -65.5t-19 -44.5t-31.5 -29.5t-33.5 -18l-37 -13.5l-20 54q39 15 54 36.5t15 68.5h-68v155z" />
<glyph unicode="-" horiz-adv-x="429" d="M84 331h261v-112h-261v112z" />
<glyph unicode="." horiz-adv-x="317" d="M84 155h149v-155h-149v155z" />
<glyph unicode="/" horiz-adv-x="456" d="M334 734h116l-343 -804h-116z" />
<glyph unicode="0" horiz-adv-x="678" d="M339 89q150 0 150 254q0 253 -150 253t-150 -253q0 -254 150 -254zM339 -12q-129 0 -211 91.5t-82 263.5t82 263t211 91t211 -91t82 -263t-82 -263.5t-211 -91.5z" />
<glyph unicode="1" horiz-adv-x="529" d="M55 105h162v434l-121 -48l-42 90l204 106h98v-582h163v-105h-464v105z" />
<glyph unicode="2" horiz-adv-x="592" d="M157 465l-129 26q18 99 85 152.5t181 53.5t180.5 -57.5t66.5 -159.5q0 -31 -6 -58t-14 -48.5t-31 -48l-40 -44.5t-60 -52l-72 -55.5l-93 -68.5h324v-105h-522v85l116 92l93.5 73t65.5 54t49.5 46.5t28 39t18 43.5t3.5 47q0 52 -29 84t-84 32q-118 0 -131 -131z" />
<glyph unicode="3" horiz-adv-x="604" d="M160 497l-127 29q20 86 91 128.5t177 42.5q108 0 176.5 -53.5t68.5 -139.5q0 -115 -100 -152q59 -20 85.5 -59.5t26.5 -102.5q0 -95 -70 -149.5t-191 -54.5q-115 0 -188 45t-87 142l134 25q12 -110 135 -110q58 0 92.5 26.5t34.5 78.5q0 102 -132 102h-64v103h60 q68 0 97.5 25.5t29.5 79.5q0 93 -120 93q-109 0 -129 -99z" />
<glyph unicode="4" horiz-adv-x="607" d="M351 687h152v-436h91v-102h-91v-149h-140v149h-353v103zM136 251h227v297z" />
<glyph unicode="5" horiz-adv-x="616" d="M96 687h440v-105h-339l-16 -173q52 47 143 47q108 0 179 -58t71 -172q0 -120 -75 -180t-186 -60q-251 0 -276 184l133 24q13 -106 137 -106q55 0 91 32t36 102q0 74 -37.5 107t-94.5 33q-93 0 -127 -66l-121 26z" />
<glyph unicode="6" horiz-adv-x="613" d="M563 550l-126 -29q-16 39 -41 57.5t-72 18.5q-35 0 -60 -14t-38.5 -34t-21.5 -53.5t-10 -62t-2 -70.5q19 37 61.5 62t105.5 25q101 0 160 -62.5t59 -166.5q0 -96 -68 -164.5t-185 -68.5q-132 0 -205.5 89t-73.5 250q0 166 74.5 268t211.5 102q99 0 155 -41.5t76 -105.5z M317 353q-53 0 -88 -35.5t-35 -97.5q0 -58 34.5 -95t88.5 -37q52 0 86 34t34 97q0 65 -34 99.5t-86 34.5z" />
<glyph unicode="7" horiz-adv-x="483" d="M7 687h456v-84q-195 -290 -195 -603h-140q4 151 64.5 303.5t154.5 278.5h-340v105z" />
<glyph unicode="8" horiz-adv-x="627" d="M313 87q58 0 92.5 30t34.5 81t-36.5 81t-90.5 30t-90.5 -30t-36.5 -81t34.5 -81t92.5 -30zM313 401q49 0 82 28.5t33 74.5t-32.5 73t-82.5 27t-82.5 -27t-32.5 -73t33 -74.5t82 -28.5zM313 -12q-122 0 -196 54.5t-74 151.5q0 57 32.5 101.5t90.5 64.5q-47 21 -72 63 t-25 94q0 84 69.5 132t174.5 48t174.5 -48t69.5 -132q0 -52 -25 -94t-72 -63q58 -20 90.5 -64.5t32.5 -101.5q0 -97 -74 -151.5t-196 -54.5z" />
<glyph unicode="9" horiz-adv-x="613" d="M50 135l126 29q16 -39 41 -57.5t72 -18.5q34 0 58.5 13t38.5 33t22 52.5t10.5 62t2.5 70.5q-48 -83 -166 -83q-102 0 -161 62t-59 167q0 95 68 163.5t185 68.5q133 0 206 -89t73 -250q0 -168 -73 -269t-213 -101q-99 0 -155.5 41.5t-75.5 105.5zM296 332q53 0 88 35.5 t35 97.5q0 59 -34 95.5t-89 36.5q-51 0 -85.5 -34t-34.5 -96q0 -65 34 -100t86 -35z" />
<glyph unicode=":" horiz-adv-x="317" d="M84 155h149v-155h-149v155zM84 454h149v-152h-149v152z" />
<glyph unicode=";" horiz-adv-x="318" d="M85 155h149v-143q0 -37 -9 -65.5t-19 -44.5t-31.5 -29.5t-33.5 -18l-37 -13.5l-20 54q39 15 54 36.5t15 68.5h-68v155zM85 454h149v-155h-149v155z" />
<glyph unicode="&#x3c;" horiz-adv-x="622" d="M569 637v-121l-400 -173l400 -173v-122l-519 235v120z" />
<glyph unicode="=" horiz-adv-x="632" d="M69 491h494v-101h-494v101zM69 295h494v-101h-494v101z" />
<glyph unicode="&#x3e;" horiz-adv-x="622" d="M53 516v121l519 -234v-120l-519 -235v122l400 173z" />
<glyph unicode="?" horiz-adv-x="482" d="M120 520l-123 13q10 86 73 133.5t162 47.5q92 0 156 -47t64 -144q0 -33 -11.5 -63t-27 -51.5t-43 -45t-47.5 -37.5t-53 -35v-69h-118v117q159 84 159 180q0 97 -89 97q-88 0 -102 -96zM137 155h149v-155h-149v155z" />
<glyph unicode="@" horiz-adv-x="895" d="M573 421h80l-54 -260q-6 -25 -6 -43q0 -20 10 -28.5t34 -8.5q23 0 49 12.5t52.5 38t44 75t17.5 113.5q0 137 -81 207t-222 70q-54 0 -108.5 -14.5t-107.5 -46.5t-93.5 -78t-65.5 -115t-25 -151q0 -65 17.5 -117.5t47.5 -85.5t65.5 -56.5t77.5 -35t76.5 -16t68.5 -4.5 q175 0 317 102l31 -44q-154 -111 -348 -111q-60 0 -115 10.5t-109.5 37t-94 67t-64.5 105.5t-25 148q0 109 39.5 198t105 144.5t147.5 85t171 29.5q48 0 94.5 -9t93.5 -32.5t82.5 -59t57.5 -93t22 -130.5q0 -80 -25.5 -142.5t-64.5 -95.5t-77 -49t-72 -16q-45 0 -69 21 t-26 59q-22 -37 -61 -60t-87 -23q-47 0 -87 35t-40 113q0 106 60 188.5t157 82.5q36 0 63 -17.5t37 -49.5zM463 362q-33 0 -59 -19.5t-40 -49t-21.5 -59.5t-7.5 -56q0 -83 68 -83q42 0 73 32t44 73t13 81q0 81 -70 81z" />
<glyph unicode="A" horiz-adv-x="722" d="M292 702h143l285 -702h-159l-64 173h-290l-66 -173h-137zM354 559l-107 -281h211z" />
<glyph unicode="B" horiz-adv-x="739" d="M90 700h342q227 0 227 -187q0 -69 -32 -106.5t-81 -47.5q61 -14 96.5 -56.5t35.5 -110.5q0 -51 -15.5 -87.5t-38 -56.5t-58.5 -31t-67 -14t-74 -3h-335v700zM236 304v-197h171q62 0 91.5 20.5t29.5 77.5q0 53 -29 76t-90 23h-173zM236 591v-186h166q63 0 89.5 21t26.5 73 q0 51 -27 71.5t-81 20.5h-174z" />
<glyph unicode="C" horiz-adv-x="759" d="M715 573l-95 -74q-69 108 -191 108q-99 0 -157 -64t-58 -192q0 -132 59.5 -195t151.5 -63q124 0 195 106l97 -74q-103 -143 -293 -143q-159 0 -263 98t-104 271q0 175 105.5 271t262.5 96q188 0 290 -145z" />
<glyph unicode="D" horiz-adv-x="794" d="M90 700h291q357 0 357 -345q0 -185 -92.5 -270t-251.5 -85h-304v700zM240 581v-462h126q51 0 87.5 10t67 34.5t45.5 72.5t15 119q0 131 -54.5 178.5t-160.5 47.5h-126z" />
<glyph unicode="E" horiz-adv-x="666" d="M90 700h505v-116h-355v-175h207v-111h-207v-181h372v-117h-522v700z" />
<glyph unicode="F" horiz-adv-x="615" d="M90 700h480v-116h-330v-178h209v-114h-209v-292h-150v700z" />
<glyph unicode="G" horiz-adv-x="823" d="M454 391h295v-391h-81l-15 96q-77 -114 -244 -114q-68 0 -130 23t-112.5 66.5t-80 114.5t-29.5 160q0 90 29.5 161.5t80.5 117t117 69.5t141 24q183 0 293 -135l-89 -78q-70 102 -201 102q-97 0 -155.5 -64.5t-58.5 -193.5t57.5 -192.5t156.5 -63.5q80 0 130.5 51.5 t57.5 140.5h-162v106z" />
<glyph unicode="H" horiz-adv-x="792" d="M90 700h150v-285h312v285h150v-700h-150v299h-312v-299h-150v700z" />
<glyph unicode="I" horiz-adv-x="330" d="M90 700h150v-700h-150v700z" />
<glyph unicode="J" horiz-adv-x="525" d="M289 700h150v-448q0 -266 -219 -266q-132 0 -211 70l76 99q49 -47 109 -47q50 0 72.5 33t22.5 115v444z" />
<glyph unicode="K" horiz-adv-x="713" d="M523 700h170l-261 -296l274 -404h-176l-200 302l-90 -102v-200h-150v700h150v-322z" />
<glyph unicode="L" horiz-adv-x="623" d="M90 700h150v-579h360v-121h-510v700z" />
<glyph unicode="M" horiz-adv-x="1002" d="M93 0v700h195l212 -464l210 464h199v-700h-150v514l-237 -514h-69l-238 516v-516h-122z" />
<glyph unicode="N" horiz-adv-x="808" d="M90 700h135l367 -478v478h126v-700h-135l-367 476v-476h-126v700z" />
<glyph unicode="O" horiz-adv-x="830" d="M415 718q152 0 255 -98.5t103 -269.5t-103 -269.5t-255 -98.5t-255 98.5t-103 269.5t103 269.5t255 98.5zM415 607q-90 0 -145.5 -66t-55.5 -191t55.5 -191t145.5 -66t145.5 66t55.5 191t-55.5 191t-145.5 66z" />
<glyph unicode="P" horiz-adv-x="727" d="M90 700h322q54 0 99 -10.5t84 -34t60.5 -66.5t21.5 -102q0 -115 -72 -171.5t-198 -56.5h-167v-259h-150v700zM240 587v-221h156q66 0 98 25.5t32 89.5q0 59 -31.5 82.5t-98.5 23.5h-156z" />
<glyph unicode="Q" horiz-adv-x="830" d="M415 718q152 0 255 -98.5t103 -269.5q0 -157 -88 -253.5t-222 -111.5q1 -30 36.5 -40t116.5 -10v-119q-249 0 -249 162v7q-135 15 -222.5 111.5t-87.5 253.5q0 171 103 269.5t255 98.5zM415 607q-90 0 -145.5 -66t-55.5 -191t55.5 -191t145.5 -66t145.5 66t55.5 191 t-55.5 191t-145.5 66z" />
<glyph unicode="R" horiz-adv-x="739" d="M90 700h324q54 0 99 -10.5t83 -34t59.5 -66.5t21.5 -102q0 -162 -138 -211l154 -276h-171l-138 263h-144v-263h-150v700zM240 587v-221h157q65 0 97 26t32 89q0 57 -32 81.5t-97 24.5h-157z" />
<glyph unicode="S" horiz-adv-x="679" d="M42 114l82 84q44 -51 103 -78t121 -27q130 0 130 85q0 34 -31.5 56.5t-78 33t-101.5 27t-101.5 37t-78 65.5t-31.5 110q0 102 78.5 156.5t197.5 54.5q96 0 172 -34t122 -86l-80 -84q-86 93 -213 93t-127 -85q0 -34 31.5 -56.5t78 -32t101.5 -25.5t101.5 -36t78 -64.5 t31.5 -109.5q0 -61 -25 -105.5t-67.5 -67.5t-89 -33t-98.5 -10q-192 0 -306 132z" />
<glyph unicode="T" horiz-adv-x="608" d="M14 700h580v-117h-215v-583h-150v583h-215v117z" />
<glyph unicode="U" horiz-adv-x="762" d="M85 700h150v-425q0 -98 42 -140.5t119 -42.5q154 0 154 186v422h126v-405q0 -88 -22 -150.5t-63.5 -97t-92.5 -49.5t-118 -15q-42 0 -79.5 6.5t-78.5 26t-70 51t-48 86t-19 125.5v422z" />
<glyph unicode="V" horiz-adv-x="707" d="M11 700h160l197 -523l194 523h134l-276 -702h-133z" />
<glyph unicode="W" horiz-adv-x="1032" d="M26 700h157l135 -481l163 481h99l162 -481l135 481h130l-207 -700h-136l-146 435l-142 -435h-143z" />
<glyph unicode="X" horiz-adv-x="683" d="M493 700h151l-221 -339l237 -361h-176l-153 247l-153 -247h-155l233 358l-221 342h170l143 -231z" />
<glyph unicode="Y" horiz-adv-x="649" d="M4 700h168l164 -285l168 285h141l-244 -404v-296h-150v292z" />
<glyph unicode="Z" horiz-adv-x="686" d="M52 700h577v-102l-392 -477h407v-121h-606v100l395 480h-381v120z" />
<glyph unicode="[" horiz-adv-x="365" d="M91 710h257v-90h-147v-719h147v-89h-257v898z" />
<glyph unicode="\" horiz-adv-x="449" d="M6 734h115l343 -804h-115z" />
<glyph unicode="]" horiz-adv-x="365" d="M17 710h257v-898h-257v89h147v719h-147v90z" />
<glyph unicode="^" horiz-adv-x="548" d="M207 697h133l162 -303h-114l-114 167l-115 -167h-113z" />
<glyph unicode="_" d="M0 -50h500v-79h-500v79z" />
<glyph unicode="`" d="M75 687h153l80 -163h-112z" />
<glyph unicode="a" horiz-adv-x="578" d="M66 367q63 110 220 110q109 0 158 -44.5t49 -154.5v-171q0 -40 33 -40q15 0 29 4v-62q-25 -17 -77 -17q-91 0 -111 82q-19 -40 -61 -64t-107 -24q-42 0 -77 11t-62.5 42.5t-27.5 80.5q0 38 17 66.5t42.5 46t71.5 31t86.5 20t104.5 14.5v20q0 39 -19 56.5t-59 17.5 q-76 0 -114 -76zM354 195v39q-44 -6 -71.5 -12t-57 -17t-44 -28.5t-14.5 -41.5q0 -33 19 -50t52 -17q48 0 82 34.5t34 92.5z" />
<glyph unicode="b" horiz-adv-x="614" d="M78 700h140v-299q22 35 62.5 53.5t85.5 18.5q88 0 146.5 -63t58.5 -179t-57 -178.5t-149 -62.5q-48 0 -93.5 21t-68.5 68l-17 -79h-108v700zM322 379q-50 0 -78.5 -38t-28.5 -109t28.5 -109.5t78.5 -38.5q47 0 76 37t29 111t-29 110.5t-76 36.5z" />
<glyph unicode="c" horiz-adv-x="538" d="M511 368l-91 -49q-37 67 -109 67q-61 0 -94.5 -39t-33.5 -116q0 -76 36.5 -114.5t97.5 -38.5q76 0 119 64l73 -59q-74 -97 -207 -97q-116 0 -188.5 63.5t-72.5 181.5q0 119 72 182.5t190 63.5q145 0 208 -109z" />
<glyph unicode="d" horiz-adv-x="613" d="M396 700h140v-700h-108l-17 78q-24 -47 -69 -67.5t-93 -20.5q-92 0 -149 62.5t-57 178.5t58.5 179t146.5 63q44 0 84.5 -18.5t63.5 -53.5v299zM292 379q-47 0 -76 -36.5t-29 -110.5t29 -111t76 -37q50 0 79 38.5t29 109.5t-29 109t-79 38z" />
<glyph unicode="e" horiz-adv-x="570" d="M444 149l76 -57q-76 -106 -213 -106q-118 0 -192 62t-74 179q0 121 71 185.5t184 64.5q102 0 169 -59t68 -179q0 -17 -1 -24h-348q2 -70 36 -104.5t90 -34.5q85 0 134 73zM186 287h215q-6 59 -33 82t-73 23q-96 0 -109 -105z" />
<glyph unicode="f" horiz-adv-x="360" d="M352 708v-94q-21 7 -49 7q-70 0 -70 -72v-85h108v-95h-108v-369h-140v369h-71v95h71v55q0 102 40.5 150t144.5 48q46 0 74 -9z" />
<glyph unicode="g" horiz-adv-x="613" d="M396 464h140v-441q0 -107 -56.5 -161t-193.5 -54q-176 0 -235 108l92 55q24 -39 54.5 -57t85.5 -18q56 0 85 26t29 95v52q-51 -63 -149 -63q-91 0 -148 59.5t-57 171.5q0 114 59 174t146 60q103 0 148 -69v62zM292 379q-46 0 -75.5 -34.5t-29.5 -106.5t29.5 -106 t75.5 -34q48 0 77.5 35t29.5 106q0 70 -30 105t-77 35z" />
<glyph unicode="h" horiz-adv-x="620" d="M78 700h140v-319q37 93 159 93q83 0 126.5 -46.5t43.5 -136.5v-291h-140v261q0 58 -19 88t-63 30q-75 0 -99 -83q-8 -29 -8 -107v-189h-140v700z" />
<glyph unicode="i" horiz-adv-x="296" d="M75 688h146v-148h-146v148zM78 464h140v-464h-140v464z" />
<glyph unicode="j" horiz-adv-x="298" d="M80 464h140v-505q0 -84 -34.5 -113t-114.5 -29q-45 0 -75 8v94q18 -3 44 -3q40 0 40 55v493zM77 688h146v-148h-146v148z" />
<glyph unicode="k" horiz-adv-x="568" d="M395 464h156l-166 -167l179 -297h-152l-123 212l-71 -72v-140h-140v700h140v-419z" />
<glyph unicode="l" horiz-adv-x="296" d="M78 700h140v-700h-140v700z" />
<glyph unicode="m" horiz-adv-x="928" d="M78 464h140v-90q14 46 53.5 73t100.5 27q120 0 153 -102q46 102 165 102q165 0 165 -190v-284h-140v261q0 118 -77 118q-38 0 -61 -23.5t-30 -59.5q-11 -40 -11 -105v-191h-140v261q0 118 -77 118q-37 0 -60.5 -23t-31.5 -60q-9 -36 -9 -105v-191h-140v464z" />
<glyph unicode="n" horiz-adv-x="620" d="M78 464h140v-83q37 93 159 93q83 0 126.5 -46.5t43.5 -136.5v-291h-140v261q0 58 -19 88t-63 30q-75 0 -99 -83q-8 -29 -8 -107v-189h-140v464z" />
<glyph unicode="o" horiz-adv-x="592" d="M296 75q49 0 80 39.5t31 116.5t-31 117t-80 40t-80 -40t-31 -117t31 -116.5t80 -39.5zM296 -14q-111 0 -183 64t-72 181q0 118 71.5 182t183.5 64t183.5 -64t71.5 -182q0 -117 -72 -181t-183 -64z" />
<glyph unicode="p" horiz-adv-x="613" d="M78 464h140v-63q21 35 62 53.5t85 18.5q88 0 146.5 -63t58.5 -179t-57 -178.5t-149 -62.5q-97 0 -146 65v-233h-140v642zM321 379q-50 0 -78.5 -38t-28.5 -109t28.5 -109.5t78.5 -38.5q48 0 76.5 36.5t28.5 111.5q0 74 -28.5 110.5t-76.5 36.5z" />
<glyph unicode="q" horiz-adv-x="614" d="M396 464h140v-642h-140v233q-50 -65 -147 -65q-92 0 -149 62.5t-57 178.5t58.5 179t146.5 63q44 0 84.5 -18.5t63.5 -53.5v63zM292 379q-47 0 -76 -36.5t-29 -110.5t29 -111t76 -37q50 0 79 38.5t29 109.5t-29 109t-79 38z" />
<glyph unicode="r" horiz-adv-x="402" d="M78 464h140v-106q36 115 168 117v-137q-12 2 -39 2q-53 0 -87 -24q-42 -31 -42 -83v-233h-140v464z" />
<glyph unicode="s" horiz-adv-x="480" d="M32 63l62 71q22 -24 63.5 -42t89.5 -18q67 0 67 42q0 22 -28.5 36t-69 25t-81 26t-69 48t-28.5 83q0 67 57.5 105t145.5 38q136 0 206 -72l-55 -70q-59 56 -150 56q-70 0 -70 -39q0 -22 28.5 -36t69 -24.5t81 -25.5t69 -48t28.5 -83q0 -70 -56.5 -109.5t-145.5 -39.5 q-65 0 -123.5 20.5t-90.5 56.5z" />
<glyph unicode="t" horiz-adv-x="363" d="M18 464h73l28 144h109v-144h94v-95h-94v-235q0 -28 13 -38.5t38 -10.5q27 0 44 4v-90q-31 -12 -88 -12q-70 0 -108 30t-38 106v246h-71v95z" />
<glyph unicode="u" horiz-adv-x="616" d="M73 464h140v-262q0 -58 17.5 -87.5t59.5 -29.5q76 0 97 82q11 35 11 107v190h140v-464h-140v85q-35 -95 -159 -95q-81 0 -123.5 46t-42.5 136v292z" />
<glyph unicode="v" horiz-adv-x="513" d="M8 464h145l116 -328l120 328h116l-183 -465h-131z" />
<glyph unicode="w" horiz-adv-x="735" d="M11 464h140l89 -307l100 307h86l91 -308l96 308h113l-153 -464h-127l-80 269l-84 -269h-126z" />
<glyph unicode="x" horiz-adv-x="474" d="M334 464h126l-149 -219l160 -245h-154l-86 145l-90 -145h-129l157 229l-152 235h153l80 -135z" />
<glyph unicode="y" horiz-adv-x="513" d="M8 464h145l116 -328l120 328h116l-217 -548q-22 -56 -54.5 -80t-95.5 -24q-41 0 -84 8v102q37 -14 85 -14q41 0 56 36l8 23z" />
<glyph unicode="z" horiz-adv-x="510" d="M53 464h403v-79l-234 -284h242v-101h-416v71l242 292h-237v101z" />
<glyph unicode="{" horiz-adv-x="384" d="M367 710v-90h-84q-40 0 -52 -18.5t-12 -59.5v-177q0 -47 -11.5 -69t-42.5 -32q31 -10 42.5 -32t11.5 -69v-185q0 -41 12 -59t52 -18h84v-89h-127q-64 0 -97.5 34.5t-33.5 100.5v186q0 49 -15 68t-59 19v87q44 0 59 19.5t15 69.5v177q0 66 33.5 101.5t97.5 35.5h127z" />
<glyph unicode="|" horiz-adv-x="309" d="M99 750h111v-948h-111v948z" />
<glyph unicode="}" horiz-adv-x="384" d="M17 620v90h127q64 0 97.5 -35.5t33.5 -101.5v-177q0 -50 15 -69.5t59 -19.5v-87q-44 0 -59 -19t-15 -68v-186q0 -66 -33.5 -100.5t-97.5 -34.5h-127v89h84q40 0 52 18t12 59v185q0 47 11.5 69t42.5 32q-31 10 -42.5 32t-11.5 69v177q0 41 -12 59.5t-52 18.5h-84z" />
<glyph unicode="~" horiz-adv-x="626" d="M115 284l-74 39q7 16 17 32t30 39.5t51.5 38t68.5 14.5q48 0 117.5 -18t97.5 -18q33 0 51.5 15.5t35.5 45.5l74 -40q-7 -16 -17 -31.5t-30 -39t-51.5 -38t-68.5 -14.5q-48 0 -117.5 18t-97.5 18q-33 0 -51.5 -15.5t-35.5 -45.5z" />
<glyph unicode="&#xa1;" horiz-adv-x="350" d="M256 0h-162v125l47 341h68l47 -341v-125zM250 545h-149v155h149v-155z" />
<glyph unicode="&#xa2;" horiz-adv-x="386" d="M358 619l-64 -39q-25 47 -80 47q-91 0 -91 -105q0 -53 24.5 -78t66.5 -25q58 0 91 44l53 -50q-43 -52 -115 -62v-59h-80v60q-65 12 -103.5 55.5t-38.5 114.5q0 72 38.5 116t103.5 55v61h80v-60q76 -12 115 -75z" />
<glyph unicode="&#xa3;" horiz-adv-x="656" d="M336 697q130 0 193 -61.5t67 -151.5l-143 -12q-5 58 -27.5 92.5t-81.5 34.5q-108 0 -108 -117q0 -56 18 -121h146v-82h-126q8 -38 8 -79q0 -46 -12 -88q64 -31 111 -31q55 0 75.5 28t20.5 95h114q12 -34 12 -72q0 -73 -54.5 -108.5t-141.5 -35.5q-100 0 -175 50 q-43 -50 -116 -50q-43 0 -77 19.5t-34 67.5q0 37 28.5 62.5t79.5 25.5q35 0 72 -13v5q0 58 -24 124h-97v82h60q-34 77 -34 137q0 96 68.5 147.5t177.5 51.5zM111 36q47 0 63 44q-34 24 -65 24q-43 0 -43 -32q0 -15 12 -25.5t33 -10.5z" />
<glyph unicode="&#xa5;" horiz-adv-x="617" d="M36 182h202v78h-202v67h180l-218 360h159l161 -278l164 278h132l-217 -360h178v-67h-197v-78h197v-67h-197v-115h-140v115h-202v67z" />
<glyph unicode="&#xa6;" horiz-adv-x="309" d="M99 750h111v-423h-111v423zM99 225h111v-422h-111v422z" />
<glyph unicode="&#xa7;" horiz-adv-x="493" d="M40 32l56 58q53 -58 139 -58q49 0 71.5 16t22.5 40q0 28 -29.5 46t-71.5 30t-83.5 28.5t-71 51.5t-29.5 88q0 84 73 123q-61 42 -61 121q0 75 53.5 113.5t148.5 38.5q57 0 109.5 -21t85.5 -59l-56 -58q-53 58 -139 58q-49 0 -71.5 -16t-22.5 -40q0 -28 29.5 -46t71 -30 t83.5 -28.5t71.5 -51.5t29.5 -88q0 -82 -74 -124q62 -41 62 -120q0 -75 -53.5 -113.5t-148.5 -38.5q-57 0 -109.5 21t-85.5 59zM347 316q0 20 -9.5 34.5t-29 25.5t-37.5 17.5t-48.5 16t-47.5 16.5q-29 -24 -29 -62q0 -20 9 -35t29 -26t37.5 -17.5t48.5 -16t48 -16.5 q29 25 29 63z" />
<glyph unicode="&#xa8;" d="M83 670h128v-130h-128v130zM289 670h128v-130h-128v130z" />
<glyph unicode="&#xa9;" horiz-adv-x="834" d="M431 162q-90 0 -145.5 48.5t-55.5 139.5q0 90 55.5 139.5t145.5 49.5q100 0 153 -73l-59 -50q-33 53 -96 53q-39 0 -63.5 -30.5t-24.5 -88.5t24.5 -88t63.5 -30q63 0 96 55l64 -54q-52 -71 -158 -71zM417 41q129 0 218.5 89.5t89.5 219.5t-89.5 219.5t-218.5 89.5 t-218.5 -89.5t-89.5 -219.5t89.5 -219.5t218.5 -89.5zM417 -14q-154 0 -260.5 105.5t-106.5 258.5t106.5 258.5t260.5 105.5t260.5 -105.5t106.5 -258.5t-106.5 -258.5t-260.5 -105.5z" />
<glyph unicode="&#xaa;" horiz-adv-x="449" d="M123 588l-66 35q44 75 152 75q80 0 118 -33.5t38 -118.5v-110q0 -29 22 -29q9 0 19 2v-44q-19 -11 -55 -11q-60 0 -77 58q-33 -63 -124 -63q-44 0 -80 23t-36 72q0 24 8.5 42.5t26.5 31t36.5 21.5t48.5 15.5t52 10t58 7.5v13q0 52 -59 52q-54 0 -82 -49zM47 293h346v-68 h-346v68zM264 498v31q-66 -8 -101.5 -23t-35.5 -48q0 -45 50 -45q34 0 60.5 23t26.5 62z" />
<glyph unicode="&#xab;" horiz-adv-x="490" d="M146 427h110l-120 -198l119 -201h-103l-140 203zM367 427h110l-120 -198l119 -201h-103l-140 203z" />
<glyph unicode="&#xad;" horiz-adv-x="429" d="M84 331h261v-112h-261v112z" />
<glyph unicode="&#xae;" horiz-adv-x="429" d="M26 524q0 78 55 133.5t133 55.5t133.5 -55.5t55.5 -133.5t-55.5 -133t-133.5 -55t-133 55t-55 133zM58 525q0 -65 46 -110.5t110 -45.5t110 45.5t46 110.5t-46 110.5t-110 45.5t-110 -45.5t-46 -110.5zM254 421l-38 79h-33v-79h-53v210h105q74 0 74 -65q0 -49 -44 -62 l45 -83h-56zM183 534h40q34 0 34 29t-32 29h-42v-58z" />
<glyph unicode="&#xaf;" d="M102 651h296v-94h-296v94z" />
<glyph unicode="&#xb0;" horiz-adv-x="432" d="M216 427q40 0 67 27.5t27 70.5q0 42 -27 69.5t-67 27.5t-67 -27.5t-27 -69.5q0 -43 27 -70.5t67 -27.5zM216 710q77 0 131 -53.5t54 -131.5q0 -79 -54 -132.5t-131 -53.5t-131 53.5t-54 132.5q0 78 54 131.5t131 53.5z" />
<glyph unicode="&#xb1;" horiz-adv-x="632" d="M262 631h106v-194h195v-101h-195v-193h-106v193h-193v101h193v194zM69 94h494v-94h-494v94z" />
<glyph unicode="&#xb2;" horiz-adv-x="379" d="M102 619l-85 17q11 63 54 97.5t115 34.5q74 0 117 -37t43 -102q0 -59 -37.5 -101.5t-133.5 -108.5l-20 -14h198v-70h-337v54l91 69q92 70 119.5 100.5t27.5 72.5q0 30 -18 50t-53 20q-70 0 -81 -82z" />
<glyph unicode="&#xb3;" horiz-adv-x="391" d="M107 638l-85 19q28 111 174 111q69 0 113 -34t44 -89q0 -70 -59 -95q67 -25 67 -100q0 -60 -45 -94.5t-123 -34.5q-159 0 -178 120l90 17q10 -69 84 -69q35 0 57 16t22 46q0 63 -82 63h-43v67h40q79 0 79 63q0 56 -74 56q-68 0 -81 -62z" />
<glyph unicode="&#xb4;" d="M272 687h153l-121 -163h-112z" />
<glyph unicode="&#xb6;" horiz-adv-x="566" d="M249 700h293v-62h-67v-638h-71v638h-74v-638h-71v293h-12q-89 0 -153.5 51.5t-64.5 152.5q0 57 20.5 98.5t54.5 63.5t70 31.5t75 9.5z" />
<glyph unicode="&#xb7;" horiz-adv-x="317" d="M84 425h149v-155h-149v155z" />
<glyph unicode="&#xb8;" d="M215 0h46l-6 -39q95 0 95 -69q0 -88 -112 -88q-50 0 -85 20l25 53q20 -15 54 -15q45 0 45 30q0 29 -52 29q-16 0 -31 -5z" />
<glyph unicode="&#xb9;" horiz-adv-x="341" d="M35 404h101v261l-74 -32l-28 60l129 65h65v-354h102v-69h-295v69z" />
<glyph unicode="&#xba;" horiz-adv-x="430" d="M47 293h335v-68h-335v68zM215 417q34 0 56.5 27t22.5 80t-22.5 80.5t-56.5 27.5t-56.5 -27.5t-22.5 -80.5t22.5 -80t56.5 -27zM215 698q79 0 130.5 -45.5t51.5 -128.5q0 -82 -51.5 -127.5t-130.5 -45.5t-130.5 45.5t-51.5 127.5q0 83 51.5 128.5t130.5 45.5z" />
<glyph unicode="&#xbb;" horiz-adv-x="490" d="M234 427h110l134 -196l-140 -203h-103l119 201zM13 427h110l134 -196l-140 -203h-103l119 201z" />
<glyph unicode="&#xbc;" horiz-adv-x="930" d="M731 423h100v-264h56v-69h-56v-90h-94v90h-218v67zM57 345h101v261l-74 -32l-28 60l129 65h65v-354h102v-69h-295v69zM666 699h72l-473 -709h-72zM607 159h130v168z" />
<glyph unicode="&#xbd;" horiz-adv-x="970" d="M671 284l-85 17q11 63 54 97.5t115 34.5q74 0 117 -37t43 -102q0 -59 -37.5 -101.5t-133.5 -108.5l-20 -14h198v-70h-337v54l91 69q92 70 119.5 100.5t27.5 72.5q0 30 -18 50t-53 20q-70 0 -81 -82zM57 345h101v261l-74 -32l-28 60l129 65h65v-354h102v-69h-295v69z M665 699h72l-473 -709h-72z" />
<glyph unicode="&#xbe;" horiz-adv-x="963" d="M124 579l-85 19q28 111 174 111q69 0 113 -34t44 -89q0 -70 -59 -95q67 -25 67 -100q0 -60 -45 -94.5t-123 -34.5q-159 0 -178 120l90 17q10 -69 84 -69q35 0 57 16t22 46q0 63 -82 63h-43v67h40q79 0 79 63q0 56 -74 56q-68 0 -81 -62zM765 423h100v-264h56v-69h-56v-90 h-94v90h-218v67zM641 159h130v168zM699 699h72l-473 -709h-72z" />
<glyph unicode="&#xbf;" horiz-adv-x="482" d="M362 180l123 -13q-10 -86 -73 -133.5t-162 -47.5q-92 0 -156 47t-64 144q0 33 11.5 63t27 51.5t43 45t47.5 37.5t53 35v69h118v-117q-159 -84 -159 -180q0 -97 89 -97q88 0 102 96zM345 545h-149v155h149v-155z" />
<glyph unicode="&#xc0;" horiz-adv-x="722" d="M292 702h143l285 -702h-159l-64 173h-290l-66 -173h-137zM354 559l-107 -281h211zM188 921h154l77 -158h-113z" />
<glyph unicode="&#xc1;" horiz-adv-x="722" d="M292 702h143l285 -702h-159l-64 173h-290l-66 -173h-137zM354 559l-107 -281h211zM384 921h154l-117 -158h-114z" />
<glyph unicode="&#xc2;" horiz-adv-x="722" d="M292 702h143l285 -702h-159l-64 173h-290l-66 -173h-137zM354 559l-107 -281h211zM295 921h136l103 -158h-106l-65 79l-65 -79h-106z" />
<glyph unicode="&#xc3;" horiz-adv-x="722" d="M292 702h143l285 -702h-159l-64 173h-290l-66 -173h-137zM354 559l-107 -281h211zM243 776l-75 15q21 126 126 126q34 0 58.5 -14.5t44 -28.5t39.5 -14q35 0 47 48l75 -15q-22 -126 -126 -126q-34 0 -58.5 14.5t-44 28.5t-39.5 14q-35 0 -47 -48z" />
<glyph unicode="&#xc4;" horiz-adv-x="722" d="M292 702h143l285 -702h-159l-64 173h-290l-66 -173h-137zM354 559l-107 -281h211zM183 909h137v-135h-137v135zM406 909h137v-135h-137v135z" />
<glyph unicode="&#xc5;" horiz-adv-x="722" d="M292 702h143l285 -702h-159l-64 173h-290l-66 -173h-137zM354 559l-107 -281h211zM363 789q21 0 35 14.5t14 38.5t-14 38.5t-35 14.5t-35 -14.5t-14 -38.5t14 -38.5t35 -14.5zM363 744q-49 0 -81.5 26.5t-32.5 71.5q0 44 32.5 70.5t81.5 26.5t81.5 -26.5t32.5 -70.5 q0 -45 -32.5 -71.5t-81.5 -26.5z" />
<glyph unicode="&#xc6;" horiz-adv-x="921" d="M293 700h553v-115h-340l22 -176h198v-111h-185l23 -181h303v-117h-426l-17 143h-231l-55 -143h-136zM369 601l-138 -359h181z" />
<glyph unicode="&#xc7;" horiz-adv-x="759" d="M715 573l-95 -74q-69 108 -191 108q-99 0 -157 -64t-58 -192q0 -132 59.5 -195t151.5 -63q124 0 195 106l97 -74q-97 -135 -273 -142l-3 -22q96 0 96 -74q0 -89 -118 -89q-48 0 -86 20l25 55q24 -15 57 -15q47 0 47 30t-50 30q-22 0 -34 -6l17 71q-148 9 -243 106 t-95 262q0 175 105.5 271t262.5 96q188 0 290 -145z" />
<glyph unicode="&#xc8;" horiz-adv-x="666" d="M177 921h154l77 -158h-113zM90 700h505v-116h-355v-175h207v-111h-207v-181h372v-117h-522v700z" />
<glyph unicode="&#xc9;" horiz-adv-x="666" d="M90 700h505v-116h-355v-175h207v-111h-207v-181h372v-117h-522v700zM373 921h154l-117 -158h-114z" />
<glyph unicode="&#xca;" horiz-adv-x="666" d="M284 921h136l103 -158h-106l-65 79l-65 -79h-106zM90 700h505v-116h-355v-175h207v-111h-207v-181h372v-117h-522v700z" />
<glyph unicode="&#xcb;" horiz-adv-x="666" d="M90 700h505v-116h-355v-175h207v-111h-207v-181h372v-117h-522v700zM172 909h137v-135h-137v135zM395 909h137v-135h-137v135z" />
<glyph unicode="&#xcc;" horiz-adv-x="330" d="M90 700h150v-700h-150v700zM-10 921h154l77 -158h-113z" />
<glyph unicode="&#xcd;" horiz-adv-x="330" d="M90 700h150v-700h-150v700zM186 921h154l-117 -158h-114z" />
<glyph unicode="&#xce;" horiz-adv-x="330" d="M90 700h150v-700h-150v700zM97 921h136l103 -158h-106l-65 79l-65 -79h-106z" />
<glyph unicode="&#xcf;" horiz-adv-x="330" d="M90 700h150v-700h-150v700zM-15 909h137v-135h-137v135zM208 909h137v-135h-137v135z" />
<glyph unicode="&#xd0;" horiz-adv-x="794" d="M90 700h291q357 0 357 -345q0 -185 -92.5 -270t-251.5 -85h-304v297h-73v113h73v290zM240 581v-171h154v-113h-154v-178h126q51 0 87.5 10t67 34.5t45.5 72.5t15 119q0 131 -54.5 178.5t-160.5 47.5h-126z" />
<glyph unicode="&#xd1;" horiz-adv-x="808" d="M284 776l-75 15q21 126 126 126q34 0 58.5 -14.5t44 -28.5t39.5 -14q35 0 47 48l75 -15q-22 -126 -126 -126q-34 0 -58.5 14.5t-44 28.5t-39.5 14q-35 0 -47 -48zM90 700h135l367 -478v478h126v-700h-135l-367 476v-476h-126v700z" />
<glyph unicode="&#xd2;" horiz-adv-x="830" d="M240 921h154l77 -158h-113zM415 718q152 0 255 -98.5t103 -269.5t-103 -269.5t-255 -98.5t-255 98.5t-103 269.5t103 269.5t255 98.5zM415 607q-90 0 -145.5 -66t-55.5 -191t55.5 -191t145.5 -66t145.5 66t55.5 191t-55.5 191t-145.5 66z" />
<glyph unicode="&#xd3;" horiz-adv-x="830" d="M436 921h154l-117 -158h-114zM415 718q152 0 255 -98.5t103 -269.5t-103 -269.5t-255 -98.5t-255 98.5t-103 269.5t103 269.5t255 98.5zM415 607q-90 0 -145.5 -66t-55.5 -191t55.5 -191t145.5 -66t145.5 66t55.5 191t-55.5 191t-145.5 66z" />
<glyph unicode="&#xd4;" horiz-adv-x="830" d="M347 921h136l103 -158h-106l-65 79l-65 -79h-106zM415 718q152 0 255 -98.5t103 -269.5t-103 -269.5t-255 -98.5t-255 98.5t-103 269.5t103 269.5t255 98.5zM415 607q-90 0 -145.5 -66t-55.5 -191t55.5 -191t145.5 -66t145.5 66t55.5 191t-55.5 191t-145.5 66z" />
<glyph unicode="&#xd5;" horiz-adv-x="829" d="M415 718q152 0 255 -98.5t103 -269.5t-103 -269.5t-255 -98.5t-255 98.5t-103 269.5t103 269.5t255 98.5zM415 607q-90 0 -145.5 -66t-55.5 -191t55.5 -191t145.5 -66t145.5 66t55.5 191t-55.5 191t-145.5 66zM295 776l-75 15q21 126 126 126q34 0 58.5 -14.5t44 -28.5 t39.5 -14q35 0 47 48l75 -15q-22 -126 -126 -126q-34 0 -58.5 14.5t-44 28.5t-39.5 14q-35 0 -47 -48z" />
<glyph unicode="&#xd6;" horiz-adv-x="829" d="M415 718q152 0 255 -98.5t103 -269.5t-103 -269.5t-255 -98.5t-255 98.5t-103 269.5t103 269.5t255 98.5zM415 607q-90 0 -145.5 -66t-55.5 -191t55.5 -191t145.5 -66t145.5 66t55.5 191t-55.5 191t-145.5 66zM235 909h137v-135h-137v135zM458 909h137v-135h-137v135z " />
<glyph unicode="&#xd7;" horiz-adv-x="631" d="M70 201l168 141l-168 142l65 76l181 -153l181 153l64 -76l-168 -142l168 -141l-64 -76l-181 152l-181 -152z" />
<glyph unicode="&#xd8;" horiz-adv-x="830" d="M415 718q77 0 145 -27l27 49h88l-48 -85q146 -101 146 -305q0 -171 -103 -269.5t-255 -98.5q-75 0 -146 27l-26 -46h-87l46 83q-145 102 -145 304q0 171 103 269.5t255 98.5zM616 350q0 120 -54 188l-236 -425q42 -20 89 -20q90 0 145.5 66t55.5 191zM415 607 q-90 0 -145.5 -66t-55.5 -191q0 -120 52 -188l236 425q-40 20 -87 20z" />
<glyph unicode="&#xd9;" horiz-adv-x="762" d="M205 921h154l77 -158h-113zM85 700h150v-425q0 -98 42 -140.5t119 -42.5q154 0 154 186v422h126v-405q0 -88 -22 -150.5t-63.5 -97t-92.5 -49.5t-118 -15q-42 0 -79.5 6.5t-78.5 26t-70 51t-48 86t-19 125.5v422z" />
<glyph unicode="&#xda;" horiz-adv-x="762" d="M85 700h150v-425q0 -98 42 -140.5t119 -42.5q154 0 154 186v422h126v-405q0 -88 -22 -150.5t-63.5 -97t-92.5 -49.5t-118 -15q-42 0 -79.5 6.5t-78.5 26t-70 51t-48 86t-19 125.5v422zM401 921h154l-117 -158h-114z" />
<glyph unicode="&#xdb;" horiz-adv-x="762" d="M312 921h136l103 -158h-106l-65 79l-65 -79h-106zM85 700h150v-425q0 -98 42 -140.5t119 -42.5q154 0 154 186v422h126v-405q0 -88 -22 -150.5t-63.5 -97t-92.5 -49.5t-118 -15q-42 0 -79.5 6.5t-78.5 26t-70 51t-48 86t-19 125.5v422z" />
<glyph unicode="&#xdc;" horiz-adv-x="762" d="M85 700h150v-425q0 -98 42 -140.5t119 -42.5q154 0 154 186v422h126v-405q0 -88 -22 -150.5t-63.5 -97t-92.5 -49.5t-118 -15q-42 0 -79.5 6.5t-78.5 26t-70 51t-48 86t-19 125.5v422zM200 909h137v-135h-137v135zM423 909h137v-135h-137v135z" />
<glyph unicode="&#xdd;" horiz-adv-x="649" d="M4 700h168l164 -285l168 285h141l-244 -404v-296h-150v292zM357 921h154l-117 -158h-114z" />
<glyph unicode="&#xde;" horiz-adv-x="733" d="M90 700h150v-130h172q54 0 99 -10.5t83 -34t59.5 -66.5t21.5 -102q0 -115 -71.5 -171t-197.5 -56h-166v-130h-150v700zM240 458v-221h155q66 0 98 25.5t32 89.5q0 58 -32 82t-98 24h-155z" />
<glyph unicode="&#xdf;" horiz-adv-x="656" d="M301 445q83 0 83 95q0 83 -80 83q-47 0 -66.5 -24.5t-19.5 -89.5v-509h-140v504q0 69 15.5 113t48 65t67.5 28t88 7q87 0 136.5 -43t49.5 -116q0 -100 -71 -132q94 -2 150.5 -52.5t56.5 -149.5q0 -127 -65.5 -181t-168.5 -54q-39 0 -89 6v90q24 -6 67 -6q113 0 113 140 q0 71 -31.5 101.5t-107.5 30.5h-36v94z" />
<glyph unicode="&#xe0;" horiz-adv-x="578" d="M66 367q63 110 220 110q109 0 158 -44.5t49 -154.5v-171q0 -40 33 -40q15 0 29 4v-62q-25 -17 -77 -17q-91 0 -111 82q-19 -40 -61 -64t-107 -24q-42 0 -77 11t-62.5 42.5t-27.5 80.5q0 38 17 66.5t42.5 46t71.5 31t86.5 20t104.5 14.5v20q0 39 -19 56.5t-59 17.5 q-76 0 -114 -76zM354 195v39q-44 -6 -71.5 -12t-57 -17t-44 -28.5t-14.5 -41.5q0 -33 19 -50t52 -17q48 0 82 34.5t34 92.5zM116 687h153l80 -163h-112z" />
<glyph unicode="&#xe1;" horiz-adv-x="578" d="M66 367q63 110 220 110q109 0 158 -44.5t49 -154.5v-171q0 -40 33 -40q15 0 29 4v-62q-25 -17 -77 -17q-91 0 -111 82q-19 -40 -61 -64t-107 -24q-42 0 -77 11t-62.5 42.5t-27.5 80.5q0 38 17 66.5t42.5 46t71.5 31t86.5 20t104.5 14.5v20q0 39 -19 56.5t-59 17.5 q-76 0 -114 -76zM354 195v39q-44 -6 -71.5 -12t-57 -17t-44 -28.5t-14.5 -41.5q0 -33 19 -50t52 -17q48 0 82 34.5t34 92.5zM313 687h153l-121 -163h-112z" />
<glyph unicode="&#xe2;" horiz-adv-x="578" d="M66 367q63 110 220 110q109 0 158 -44.5t49 -154.5v-171q0 -40 33 -40q15 0 29 4v-62q-25 -17 -77 -17q-91 0 -111 82q-19 -40 -61 -64t-107 -24q-42 0 -77 11t-62.5 42.5t-27.5 80.5q0 38 17 66.5t42.5 46t71.5 31t86.5 20t104.5 14.5v20q0 39 -19 56.5t-59 17.5 q-76 0 -114 -76zM354 195v39q-44 -6 -71.5 -12t-57 -17t-44 -28.5t-14.5 -41.5q0 -33 19 -50t52 -17q48 0 82 34.5t34 92.5zM223 687h136l102 -163h-105l-65 84l-65 -84h-105z" />
<glyph unicode="&#xe3;" horiz-adv-x="578" d="M66 367q63 110 220 110q109 0 158 -44.5t49 -154.5v-171q0 -40 33 -40q15 0 29 4v-62q-25 -17 -77 -17q-91 0 -111 82q-19 -40 -61 -64t-107 -24q-42 0 -77 11t-62.5 42.5t-27.5 80.5q0 38 17 66.5t42.5 46t71.5 31t86.5 20t104.5 14.5v20q0 39 -19 56.5t-59 17.5 q-76 0 -114 -76zM354 195v39q-44 -6 -71.5 -12t-57 -17t-44 -28.5t-14.5 -41.5q0 -33 19 -50t52 -17q48 0 82 34.5t34 92.5zM180 544l-69 11q6 61 37.5 90.5t75.5 29.5q36 0 75 -26.5t59 -26.5q34 0 44 45l69 -11q-7 -61 -38.5 -91t-74.5 -30q-34 0 -74 27t-60 27 q-35 0 -44 -45z" />
<glyph unicode="&#xe4;" horiz-adv-x="578" d="M66 367q63 110 220 110q109 0 158 -44.5t49 -154.5v-171q0 -40 33 -40q15 0 29 4v-62q-25 -17 -77 -17q-91 0 -111 82q-19 -40 -61 -64t-107 -24q-42 0 -77 11t-62.5 42.5t-27.5 80.5q0 38 17 66.5t42.5 46t71.5 31t86.5 20t104.5 14.5v20q0 39 -19 56.5t-59 17.5 q-76 0 -114 -76zM354 195v39q-44 -6 -71.5 -12t-57 -17t-44 -28.5t-14.5 -41.5q0 -33 19 -50t52 -17q48 0 82 34.5t34 92.5zM124 670h128v-130h-128v130zM330 670h128v-130h-128v130z" />
<glyph unicode="&#xe5;" horiz-adv-x="578" d="M66 367q63 110 220 110q109 0 158 -44.5t49 -154.5v-171q0 -40 33 -40q15 0 29 4v-62q-25 -17 -77 -17q-91 0 -111 82q-19 -40 -61 -64t-107 -24q-42 0 -77 11t-62.5 42.5t-27.5 80.5q0 38 17 66.5t42.5 46t71.5 31t86.5 20t104.5 14.5v20q0 39 -19 56.5t-59 17.5 q-76 0 -114 -76zM354 195v39q-44 -6 -71.5 -12t-57 -17t-44 -28.5t-14.5 -41.5q0 -33 19 -50t52 -17q48 0 82 34.5t34 92.5zM291 557q19 0 30 13t11 35t-11 35t-30 13t-30 -13t-11 -35t11 -35t30 -13zM291 517q-45 0 -73.5 23.5t-28.5 64.5t28.5 64.5t73.5 23.5 q44 0 73 -23.5t29 -64.5t-29 -64.5t-73 -23.5z" />
<glyph unicode="&#xe6;" horiz-adv-x="881" d="M162 316l-96 51q63 110 220 110q109 0 149 -62q61 62 174 62q66 0 117.5 -23t86 -78t35.5 -137q0 -16 -1 -23h-352q2 -70 37.5 -105.5t90.5 -35.5q44 0 76 16t59 60l77 -58q-77 -107 -215 -107q-84 0 -146.5 31.5t-84.5 92.5q-36 -124 -190 -124q-29 0 -56 6t-53 20.5 t-42 42t-16 65.5q0 48 24 81t71 51t101 25.5t127 8.5v32q0 39 -19.5 56.5t-59.5 17.5q-76 0 -114 -76zM355 196v23q-57 0 -95 -6t-65.5 -26.5t-27.5 -55.5q0 -30 19.5 -46.5t51.5 -16.5q48 0 82.5 35t34.5 93zM497 286h218q-5 59 -33 82.5t-74 23.5t-75 -26.5t-36 -79.5z " />
<glyph unicode="&#xe7;" horiz-adv-x="538" d="M511 368l-91 -49q-37 67 -109 67q-61 0 -94.5 -39t-33.5 -116q0 -76 36.5 -114.5t97.5 -38.5q76 0 119 64l73 -59q-69 -92 -197 -97l-4 -25q95 0 95 -69q0 -88 -112 -88q-50 0 -85 20l25 53q20 -15 54 -15q45 0 45 30q0 29 -52 29q-16 0 -31 -5l18 72q-101 9 -162.5 72 t-61.5 171q0 119 72 182.5t190 63.5q145 0 208 -109z" />
<glyph unicode="&#xe8;" horiz-adv-x="570" d="M444 149l76 -57q-76 -106 -213 -106q-118 0 -192 62t-74 179q0 121 71 185.5t184 64.5q102 0 169 -59t68 -179q0 -17 -1 -24h-348q2 -70 36 -104.5t90 -34.5q85 0 134 73zM186 287h215q-6 59 -33 82t-73 23q-96 0 -109 -105zM121 687h153l80 -163h-112z" />
<glyph unicode="&#xe9;" horiz-adv-x="570" d="M318 687h153l-121 -163h-112zM444 149l76 -57q-76 -106 -213 -106q-118 0 -192 62t-74 179q0 121 71 185.5t184 64.5q102 0 169 -59t68 -179q0 -17 -1 -24h-348q2 -70 36 -104.5t90 -34.5q85 0 134 73zM186 287h215q-6 59 -33 82t-73 23q-96 0 -109 -105z" />
<glyph unicode="&#xea;" horiz-adv-x="570" d="M228 687h136l102 -163h-105l-65 84l-65 -84h-105zM444 149l76 -57q-76 -106 -213 -106q-118 0 -192 62t-74 179q0 121 71 185.5t184 64.5q102 0 169 -59t68 -179q0 -17 -1 -24h-348q2 -70 36 -104.5t90 -34.5q85 0 134 73zM186 287h215q-6 59 -33 82t-73 23 q-96 0 -109 -105z" />
<glyph unicode="&#xeb;" horiz-adv-x="570" d="M129 670h128v-130h-128v130zM335 670h128v-130h-128v130zM444 149l76 -57q-76 -106 -213 -106q-118 0 -192 62t-74 179q0 121 71 185.5t184 64.5q102 0 169 -59t68 -179q0 -17 -1 -24h-348q2 -70 36 -104.5t90 -34.5q85 0 134 73zM186 287h215q-6 59 -33 82t-73 23 q-96 0 -109 -105z" />
<glyph unicode="&#xec;" horiz-adv-x="296" d="M78 464h140v-464h-140v464zM-27 687h153l80 -163h-112z" />
<glyph unicode="&#xed;" horiz-adv-x="296" d="M170 687h153l-121 -163h-112zM78 464h140v-464h-140v464z" />
<glyph unicode="&#xee;" horiz-adv-x="296" d="M80 687h136l102 -163h-105l-65 84l-65 -84h-105zM78 464h140v-464h-140v464z" />
<glyph unicode="&#xef;" horiz-adv-x="296" d="M-19 670h128v-130h-128v130zM187 670h128v-130h-128v130zM78 464h140v-464h-140v464z" />
<glyph unicode="&#xf0;" horiz-adv-x="589" d="M197 529l119 36q-46 30 -116 43l25 108q145 -29 223 -110l88 27l16 -50l-69 -22q62 -94 62 -251t-66.5 -239.5t-192.5 -82.5q-115 0 -181 68.5t-66 165.5q0 106 60.5 167.5t161.5 61.5q91 0 146 -68q-7 92 -45 141l-149 -46zM294 357q-46 0 -79 -36.5t-33 -101.5 q0 -67 32.5 -105.5t79.5 -38.5t79.5 40t32.5 105q0 60 -32.5 98.5t-79.5 38.5z" />
<glyph unicode="&#xf1;" horiz-adv-x="620" d="M78 464h140v-83q37 93 159 93q83 0 126.5 -46.5t43.5 -136.5v-291h-140v261q0 58 -19 88t-63 30q-75 0 -99 -83q-8 -29 -8 -107v-189h-140v464zM200 544l-69 11q6 61 37.5 90.5t75.5 29.5q36 0 75 -26.5t59 -26.5q34 0 44 45l69 -11q-7 -61 -38.5 -91t-74.5 -30 q-34 0 -74 27t-60 27q-35 0 -44 -45z" />
<glyph unicode="&#xf2;" horiz-adv-x="592" d="M296 75q49 0 80 39.5t31 116.5t-31 117t-80 40t-80 -40t-31 -117t31 -116.5t80 -39.5zM296 -14q-111 0 -183 64t-72 181q0 118 71.5 182t183.5 64t183.5 -64t71.5 -182q0 -117 -72 -181t-183 -64zM121 687h153l80 -163h-112z" />
<glyph unicode="&#xf3;" horiz-adv-x="592" d="M318 687h153l-121 -163h-112zM296 75q49 0 80 39.5t31 116.5t-31 117t-80 40t-80 -40t-31 -117t31 -116.5t80 -39.5zM296 -14q-111 0 -183 64t-72 181q0 118 71.5 182t183.5 64t183.5 -64t71.5 -182q0 -117 -72 -181t-183 -64z" />
<glyph unicode="&#xf4;" horiz-adv-x="592" d="M228 687h136l102 -163h-105l-65 84l-65 -84h-105zM296 75q49 0 80 39.5t31 116.5t-31 117t-80 40t-80 -40t-31 -117t31 -116.5t80 -39.5zM296 -14q-111 0 -183 64t-72 181q0 118 71.5 182t183.5 64t183.5 -64t71.5 -182q0 -117 -72 -181t-183 -64z" />
<glyph unicode="&#xf5;" horiz-adv-x="592" d="M296 75q49 0 80 39.5t31 116.5t-31 117t-80 40t-80 -40t-31 -117t31 -116.5t80 -39.5zM296 -14q-111 0 -183 64t-72 181q0 118 71.5 182t183.5 64t183.5 -64t71.5 -182q0 -117 -72 -181t-183 -64zM185 544l-69 11q6 61 37.5 90.5t75.5 29.5q35 0 74 -26.5t60 -26.5 q33 0 44 45l69 -11q-7 -61 -38.5 -91t-74.5 -30q-35 0 -75 27t-59 27q-35 0 -44 -45z" />
<glyph unicode="&#xf6;" horiz-adv-x="592" d="M129 670h128v-130h-128v130zM335 670h128v-130h-128v130zM296 75q49 0 80 39.5t31 116.5t-31 117t-80 40t-80 -40t-31 -117t31 -116.5t80 -39.5zM296 -14q-111 0 -183 64t-72 181q0 118 71.5 182t183.5 64t183.5 -64t71.5 -182q0 -117 -72 -181t-183 -64z" />
<glyph unicode="&#xf7;" horiz-adv-x="632" d="M69 392h494v-100h-494v100zM248 593h137v-138h-137v138zM248 229h137v-137h-137v137z" />
<glyph unicode="&#xf8;" horiz-adv-x="592" d="M296 -14q-57 0 -106 17l-16 -26h-77l35 56q-91 67 -91 198q0 118 71.5 182t183.5 64q56 0 105 -17l18 28h77l-37 -59q92 -66 92 -198q0 -117 -72 -181t-183 -64zM296 75q49 0 80 39.5t31 116.5q0 53 -16 90l-147 -232q22 -14 52 -14zM185 231q0 -54 15 -90l147 233 q-23 14 -51 14q-49 0 -80 -40t-31 -117z" />
<glyph unicode="&#xf9;" horiz-adv-x="616" d="M73 464h140v-262q0 -58 17.5 -87.5t59.5 -29.5q76 0 97 82q11 35 11 107v190h140v-464h-140v85q-35 -95 -159 -95q-81 0 -123.5 46t-42.5 136v292zM130 687h153l80 -163h-112z" />
<glyph unicode="&#xfa;" horiz-adv-x="616" d="M327 687h153l-121 -163h-112zM73 464h140v-262q0 -58 17.5 -87.5t59.5 -29.5q76 0 97 82q11 35 11 107v190h140v-464h-140v85q-35 -95 -159 -95q-81 0 -123.5 46t-42.5 136v292z" />
<glyph unicode="&#xfb;" horiz-adv-x="616" d="M237 687h136l102 -163h-105l-65 84l-65 -84h-105zM73 464h140v-262q0 -58 17.5 -87.5t59.5 -29.5q76 0 97 82q11 35 11 107v190h140v-464h-140v85q-35 -95 -159 -95q-81 0 -123.5 46t-42.5 136v292z" />
<glyph unicode="&#xfc;" horiz-adv-x="616" d="M138 670h128v-130h-128v130zM344 670h128v-130h-128v130zM73 464h140v-262q0 -58 17.5 -87.5t59.5 -29.5q76 0 97 82q11 35 11 107v190h140v-464h-140v85q-35 -95 -159 -95q-81 0 -123.5 46t-42.5 136v292z" />
<glyph unicode="&#xfd;" horiz-adv-x="513" d="M8 464h145l116 -328l120 328h116l-217 -548q-22 -56 -54.5 -80t-95.5 -24q-41 0 -84 8v102q37 -14 85 -14q41 0 56 36l8 23zM290 687h153l-121 -163h-112z" />
<glyph unicode="&#xfe;" horiz-adv-x="613" d="M78 700h140v-300q24 39 67 56t80 17q88 0 146.5 -63t58.5 -179t-57 -178.5t-149 -62.5q-97 0 -146 65v-232h-140v877zM321 379q-50 0 -78.5 -38t-28.5 -109t28.5 -109.5t78.5 -38.5q48 0 76.5 36.5t28.5 111.5q0 74 -28.5 110.5t-76.5 36.5z" />
<glyph unicode="&#xff;" horiz-adv-x="513" d="M8 464h145l116 -328l120 328h116l-217 -548q-22 -56 -54.5 -80t-95.5 -24q-41 0 -84 8v102q37 -14 85 -14q41 0 56 36l8 23zM101 670h128v-130h-128v130zM307 670h128v-130h-128v130z" />
<glyph unicode="&#x152;" horiz-adv-x="998" d="M452 700h475v-116h-331v-175h196v-111h-196v-181h348v-117h-492q-178 0 -286.5 89.5t-108.5 260.5q0 169 109 259.5t286 90.5zM446 110v480q-107 0 -170 -58t-63 -182t63 -182t170 -58z" />
<glyph unicode="&#x153;" horiz-adv-x="936" d="M296 -14q-111 0 -183 64t-72 181q0 118 71.5 182t183.5 64q115 0 183 -64q68 64 183 64q102 0 169 -59t68 -179q0 -17 -1 -24h-348q2 -70 36 -104.5t90 -34.5q85 0 134 73l76 -57q-76 -106 -213 -106q-122 0 -194 63q-69 -63 -183 -63zM296 75q49 0 80 39.5t31 116.5 t-31 117t-80 40t-80 -40t-31 -117t31 -116.5t80 -39.5zM552 287h215q-6 59 -33 82t-73 23q-96 0 -109 -105z" />
<glyph unicode="&#x178;" horiz-adv-x="649" d="M4 700h168l164 -285l168 285h141l-244 -404v-296h-150v292zM156 909h137v-135h-137v135zM379 909h137v-135h-137v135z" />
<glyph unicode="&#x2c6;" d="M182 687h136l102 -163h-105l-65 84l-65 -84h-105z" />
<glyph unicode="&#x2dc;" d="M139 544l-69 11q6 61 37.5 90.5t75.5 29.5q35 0 74 -26.5t60 -26.5q33 0 44 45l69 -11q-7 -61 -38.5 -91t-74.5 -30q-35 0 -75 27t-59 27q-35 0 -44 -45z" />
<glyph unicode="&#x2013;" d="M84 331h332v-95h-332v95z" />
<glyph unicode="&#x2014;" horiz-adv-x="1000" d="M84 331h832v-95h-832v95z" />
<glyph unicode="&#x2018;" horiz-adv-x="318" d="M233 402h-149v143q0 37 9 65.5t19 44.5t31.5 29.5t33 18t36.5 13.5l21 -54q-39 -15 -54.5 -36.5t-15.5 -68.5h69v-155z" />
<glyph unicode="&#x2019;" horiz-adv-x="318" d="M85 700h149v-143q0 -37 -9 -65.5t-19 -44.5t-31.5 -29.5t-33 -18t-36.5 -13.5l-21 54q39 15 54.5 36.5t15.5 68.5h-69v155z" />
<glyph unicode="&#x201a;" horiz-adv-x="318" d="M85 155h149v-143q0 -37 -9 -65.5t-19 -44.5t-31.5 -29.5t-33.5 -18l-37 -13.5l-20 54q39 15 54 36.5t15 68.5h-68v155z" />
<glyph unicode="&#x201c;" horiz-adv-x="523" d="M224 399h-140v141q0 76 29 115t93 57l20 -48q-40 -15 -53 -37t-13 -73h64v-155zM437 399h-140v141q0 76 29 115t93 57l20 -48q-40 -15 -53 -37t-13 -73h64v-155z" />
<glyph unicode="&#x201d;" horiz-adv-x="523" d="M299 700h140v-141q0 -76 -29 -115t-93 -57l-20 48q40 15 53 37t13 73h-64v155zM86 700h140v-141q0 -76 -29 -115t-93 -57l-20 48q40 15 53 37t13 73h-64v155z" />
<glyph unicode="&#x201e;" horiz-adv-x="523" d="M299 155h140v-141q0 -76 -29 -115t-93 -57l-20 48q40 15 53 37t13 73h-64v155zM86 155h140v-141q0 -76 -29 -115t-93 -57l-20 48q40 15 53 37t13 73h-64v155z" />
<glyph unicode="&#x2022;" d="M386 342q0 -56 -40.5 -95.5t-95.5 -39.5t-95.5 39.5t-40.5 95.5t40.5 95.5t95.5 39.5t95.5 -39.5t40.5 -95.5z" />
<glyph unicode="&#x2026;" horiz-adv-x="988" d="M90 155h149v-155h-149v155zM420 155h149v-155h-149v155zM749 155h149v-155h-149v155z" />
<glyph unicode="&#x2039;" horiz-adv-x="273" d="M147 427h113l-120 -199l116 -200h-105l-139 201z" />
<glyph unicode="&#x203a;" horiz-adv-x="273" d="M12 427h113l135 -198l-139 -201h-105l116 200z" />
<glyph unicode="&#x20ac;" horiz-adv-x="587" d="M15 313h67q-1 10 -1 30q0 23 1 34h-67v70h76q26 120 108.5 185t200.5 65q102 0 175 -41l-49 -96q-55 34 -122 34q-133 0 -169 -147h239l-34 -70h-215q-1 -11 -1 -34q0 -20 1 -30h184l-34 -70h-141q36 -152 170 -152q67 0 128 38l49 -92q-73 -49 -177 -49 q-119 0 -203.5 66.5t-110.5 188.5h-75v70z" />
<glyph unicode="&#x2122;" horiz-adv-x="855" d="M367 700h108l103 -229l101 229h111v-357h-79v273l-123 -276h-36l-119 266v-263h-66v357zM14 700h302v-65h-110v-292h-81v292h-111v65z" />
<glyph unicode="&#xe000;" horiz-adv-x="465" d="M0 465h465v-465h-465v465z" />
<glyph unicode="&#xfb01;" horiz-adv-x="656" d="M435 688h146v-148h-146v148zM438 464h140v-464h-140v464zM352 708v-94q-21 7 -49 7q-70 0 -70 -72v-85h108v-95h-108v-369h-140v369h-71v95h71v55q0 102 40.5 150t144.5 48q46 0 74 -9z" />
<glyph unicode="&#xfb02;" horiz-adv-x="656" d="M438 700h140v-700h-140v700zM352 708v-94q-21 7 -49 7q-70 0 -70 -72v-85h108v-95h-108v-369h-140v369h-71v95h71v55q0 102 40.5 150t144.5 48q46 0 74 -9z" />
<glyph unicode="&#xfb03;" horiz-adv-x="1016" d="M795 688h146v-148h-146v148zM798 464h140v-464h-140v464zM712 708v-94q-21 7 -49 7q-70 0 -70 -72v-85h108v-95h-108v-369h-140v369h-71v95h71v55q0 102 40.5 150t144.5 48q46 0 74 -9zM352 708v-94q-21 7 -49 7q-70 0 -70 -72v-85h108v-95h-108v-369h-140v369h-71v95h71 v55q0 102 40.5 150t144.5 48q46 0 74 -9z" />
<glyph unicode="&#xfb04;" horiz-adv-x="1016" d="M798 700h140v-700h-140v700zM712 708v-94q-21 7 -49 7q-70 0 -70 -72v-85h108v-95h-108v-369h-140v369h-71v95h71v55q0 102 40.5 150t144.5 48q46 0 74 -9zM352 708v-94q-21 7 -49 7q-70 0 -70 -72v-85h108v-95h-108v-369h-140v369h-71v95h71v55q0 102 40.5 150t144.5 48 q46 0 74 -9z" />
</font>
</defs>
</svg>
