<?xml version="1.0" encoding="utf-8"?>
<!-- Generator: Adobe Illustrator 16.0.0, SVG Export Plug-In . SVG Version: 6.00 Build 0)  -->
<!DOCTYPE svg PUBLIC "-//W3C//DTD SVG 1.1//EN" "http://www.w3.org/Graphics/SVG/1.1/DTD/svg11.dtd">
<svg version="1.1" xmlns="http://www.w3.org/2000/svg" xmlns:xlink="http://www.w3.org/1999/xlink" x="0px" y="0px" width="10px"
	 height="8px" viewBox="0 0 10 8" enable-background="new 0 0 10 8" xml:space="preserve">
<g id="Layer_1" display="none">
	<path display="inline" fill-rule="evenodd" clip-rule="evenodd" d="M4.634,7.155c0.803-0.802,1.59-1.589,2.39-2.39
		c-1.578,0-5.066,0-6.634,0c0-0.518,0-1.024,0-1.538c1.559,0,5.042,0,6.604,0C6.204,2.438,5.42,1.652,4.634,0.867
		C4.64,0.858,4.645,0.851,4.649,0.843c0.025-0.002,0.049-0.006,0.074-0.006c0.646,0,1.292,0.001,1.938,0.004
		c0.036,0,0.081,0.017,0.105,0.042c1.026,1.024,2.051,2.05,3.074,3.076c0.014,0.012,0.024,0.025,0.061,0.068
		C9.87,4.045,9.833,4.057,9.81,4.082C8.803,5.087,7.795,6.094,6.787,7.099C6.755,7.13,6.705,7.16,6.663,7.16
		C6.014,7.164,5.365,7.163,4.715,7.163C4.696,7.163,4.676,7.159,4.634,7.155z"/>
</g>
<g id="Layer_2">
	<polygon fill="#231F20" points="9.641,4.013 6.575,0.837 5.772,1.619 7.575,3.47 0.359,3.47 0.359,4.59 7.563,4.59 5.747,6.359 
		6.529,7.163 	"/>
	<g>
	</g>
	<g>
	</g>
	<g>
	</g>
	<g>
	</g>
	<g>
	</g>
	<g>
	</g>
</g>
</svg>
